<svg width="32" height="32" viewBox="0 0 32 32" fill="none" xmlns="http://www.w3.org/2000/svg">
<path fill-rule="evenodd" clip-rule="evenodd" d="M8.97143 0C6.27381 0 4.00564 0.961453 2.41675 2.66588C0.835124 4.36251 0 6.71531 0 9.3777V22.6223C0 25.2835 0.830821 27.6364 2.41095 29.3337C3.99861 31.039 6.26731 32 8.97143 32H23.0286C25.7327 32 28.0014 31.039 29.5891 29.3337C31.1692 27.6364 32 25.2835 32 22.6223V9.3777C32 6.71654 31.1692 4.36358 29.5891 2.66636C28.0014 0.961051 25.7327 0 23.0286 0H8.97143ZM2 9.3777C2 7.13052 2.70059 5.29446 3.87968 4.02964C5.0515 2.77261 6.76905 2 8.97143 2H23.0286C25.2388 2 26.9558 2.77301 28.1253 4.02917C29.3023 5.2934 30 7.12929 30 9.3777V22.6223C30 24.8707 29.3023 26.7066 28.1253 27.9708C26.9558 29.227 25.2388 30 23.0286 30H8.97143C6.76126 30 5.04425 29.227 3.87476 27.9708C2.69775 26.7066 2 24.8707 2 22.6223V9.3777ZM17 9C17 8.44771 16.5523 8 16 8C15.4477 8 15 8.44771 15 9V23C15 23.5523 15.4477 24 16 24C16.5523 24 17 23.5523 17 23V9ZM11 13C11 12.4477 10.5523 12 10 12C9.44771 12 9 12.4477 9 13V23C9 23.5523 9.44771 24 10 24C10.5523 24 11 23.5523 11 23V13ZM22 16C22.5523 16 23 16.4477 23 17V23C23 23.5523 22.5523 24 22 24C21.4477 24 21 23.5523 21 23V17C21 16.4477 21.4477 16 22 16Z" fill="#FF9900"/>
</svg>
