<svg width="46" height="46" viewBox="0 0 46 46" fill="none" xmlns="http://www.w3.org/2000/svg">
<rect width="46" height="46" rx="10" fill="#203F9A"/>
<path fill-rule="evenodd" clip-rule="evenodd" d="M13.7594 15.7984C13.7863 15.773 13.8399 15.7225 13.8922 15.6659C14.7444 14.842 15.3468 14.3893 15.7947 14.1672C16.2057 13.9634 16.423 13.9824 16.5905 14.0364C16.8268 14.1125 17.1299 14.3157 17.6149 14.7754C17.8487 14.997 18.0994 15.2526 18.3917 15.5509L18.3986 15.5579L18.3986 15.5579C18.6851 15.8502 19.0051 16.1769 19.3616 16.5224C19.9387 17.0821 19.9864 17.416 19.9808 17.6262C19.977 17.7705 19.9427 17.9397 19.8686 18.1732C19.8316 18.2896 19.7886 18.4106 19.7384 18.5501L19.7232 18.5921L19.7232 18.5922C19.6785 18.7163 19.6285 18.855 19.5812 18.9968C19.3639 19.6491 19.1599 20.4914 19.42 21.5188C19.674 22.5223 20.3351 23.5665 21.5459 24.7403C22.7589 25.9162 23.8295 26.5491 24.8459 26.7905C25.8816 27.0365 26.7305 26.8437 27.3977 26.6341C27.5431 26.5885 27.6852 26.5402 27.8132 26.4967L27.8132 26.4967L27.8566 26.4819C28.0003 26.4332 28.1262 26.391 28.2477 26.3546C28.4911 26.2818 28.6741 26.2459 28.835 26.2418C29.085 26.2354 29.444 26.2966 30.0194 26.8542C30.3717 27.1957 30.7048 27.5029 31.0034 27.7782L31.0207 27.7942C31.328 28.0776 31.5913 28.3209 31.8194 28.5476C32.2955 29.021 32.498 29.3105 32.5716 29.5261C32.6183 29.6627 32.6446 29.8492 32.4404 30.2364C32.2149 30.6639 31.7518 31.2446 30.9029 32.0698C30.8446 32.1204 30.7924 32.1726 30.766 32.1989L30.7659 32.1989L30.7576 32.2072L30.7538 32.211C30.7063 32.2582 30.6622 32.302 30.6099 32.3502C30.5057 32.4463 30.3756 32.5533 30.2099 32.6525C29.8915 32.8434 29.3873 33.0395 28.6019 32.9934C26.9754 32.8979 24.0204 31.7516 19.1228 27.0039C14.2185 22.2497 13.0516 19.3953 12.9543 17.8492C12.9076 17.1087 13.103 16.6354 13.295 16.3337C13.3955 16.1758 13.5045 16.0508 13.6036 15.9496C13.6534 15.8988 13.6987 15.8559 13.7474 15.8097L13.7475 15.8097L13.7508 15.8065L13.7594 15.7984ZM19.821 14.1519L19.8209 14.1518L19.8155 14.1463L19.8155 14.1463C19.5313 13.8562 19.255 13.5743 18.9908 13.3239C18.4768 12.8367 17.8974 12.3563 17.2041 12.1328C16.4419 11.8871 15.6824 11.9904 14.9061 12.3755C14.1708 12.7401 13.3824 13.3743 12.4753 14.254C12.4567 14.272 12.4389 14.2907 12.4218 14.31C12.4209 14.3109 12.4197 14.3121 12.4181 14.3136C12.4113 14.3202 12.398 14.3331 12.3754 14.3545L12.3675 14.3619L12.3675 14.362C12.3206 14.4064 12.2515 14.4718 12.175 14.5499C12.0105 14.7177 11.804 14.9515 11.6077 15.2599C11.2061 15.8908 10.883 16.7803 10.9582 17.975C11.1046 20.2993 12.7435 23.6052 17.7307 28.4399C22.7235 33.2799 26.1207 34.8511 28.4847 34.9899C29.6945 35.0609 30.5951 34.7534 31.238 34.3681C31.553 34.1793 31.7927 33.9801 31.9657 33.8205C32.046 33.7465 32.1133 33.6796 32.1591 33.6341L32.1591 33.6341L32.167 33.6263C32.1891 33.6043 32.2024 33.5914 32.2091 33.5849C32.2107 33.5834 32.2119 33.5822 32.2127 33.5814C32.2325 33.5649 32.2517 33.5477 32.2702 33.5298C33.1743 32.6536 33.8304 31.8881 34.2094 31.1694C34.6119 30.4063 34.7257 29.6454 34.4643 28.8799C34.2299 28.1932 33.7288 27.6257 33.2295 27.1293C32.9698 26.8712 32.6775 26.6015 32.3766 26.324L32.3649 26.3132C32.0632 26.0349 31.7455 25.7419 31.4112 25.4179C30.5391 24.5728 29.6835 24.2194 28.7839 24.2424C28.3698 24.253 27.9943 24.3428 27.6742 24.4386C27.5139 24.4866 27.3569 24.5395 27.2139 24.588L27.1712 24.6025C27.0402 24.647 26.9203 24.6877 26.7984 24.726C26.2775 24.8897 25.8351 24.9698 25.3081 24.8447C24.7618 24.7149 23.9984 24.3323 22.938 23.3043C21.8754 22.2742 21.4884 21.5401 21.3588 21.028C21.2352 20.5398 21.312 20.1294 21.4787 19.629C21.5178 19.5116 21.5594 19.3961 21.6053 19.2689L21.6202 19.2276C21.6701 19.0889 21.725 18.9353 21.7748 18.7784C21.8742 18.4653 21.9692 18.0926 21.9801 17.6793C22.0042 16.7742 21.6236 15.9301 20.7538 15.0866C20.4158 14.7589 20.1107 14.4476 19.821 14.1519ZM25.0332 12.8931C25.0923 12.344 25.5854 11.9468 26.1345 12.006C30.7971 12.508 34.5163 16.0824 35.0454 20.6575C35.1089 21.2062 34.7155 21.7024 34.1669 21.7658C33.6183 21.8292 33.1221 21.4359 33.0586 20.8873C32.6416 17.2812 29.695 14.4009 25.9204 13.9945C25.3713 13.9353 24.974 13.4423 25.0332 12.8931ZM25.0448 16.7309C25.147 16.1881 25.6699 15.831 26.2126 15.9332C28.617 16.3861 30.521 18.216 30.9974 20.5874C31.1062 21.1289 30.7555 21.656 30.214 21.7648C29.6725 21.8736 29.1454 21.5228 29.0366 20.9813C28.7265 19.4379 27.4754 18.2062 25.8424 17.8987C25.2997 17.7965 24.9426 17.2736 25.0448 16.7309Z" fill="white"/>
</svg>
