<svg width="46" height="46" viewBox="0 0 46 46" fill="none" xmlns="http://www.w3.org/2000/svg">
<rect x="46" width="46" height="46" rx="10" transform="rotate(90 46 0)" fill="#E30A17"/>
<path fill-rule="evenodd" clip-rule="evenodd" d="M27 22H34V30H27V22ZM32 24V28H29V24H32Z" fill="white"/>
<path d="M24 22H22V30H24V22Z" fill="white"/>
<path fill-rule="evenodd" clip-rule="evenodd" d="M12 22H19V30H12L12 22ZM17 24V28H14V24H17Z" fill="white"/>
<path fill-rule="evenodd" clip-rule="evenodd" d="M33.4684 12H12.5316L7 18.6379V34H39V18.6379L33.4684 12ZM10.135 18L13.4684 14H32.5316L35.865 18H10.135ZM9 20H37V32H9V20Z" fill="white"/>
</svg>
