<svg width="46" height="46" viewBox="0 0 46 46" fill="none" xmlns="http://www.w3.org/2000/svg">
<rect width="46" height="46" rx="10" fill="#79C200"/>
<path fill-rule="evenodd" clip-rule="evenodd" d="M23.0006 9C19.1355 9 16.001 12.1323 16 15.9977C15.9879 19.8514 19.1018 22.9869 22.955 23L22.9584 23H23.0006C26.8668 23 30 19.865 30 15.9994C30 12.1335 26.8666 9 23.0006 9ZM18 15.9994C18 13.2383 20.239 11 23.0006 11C25.762 11 28 13.238 28 15.9994C28 18.761 25.7617 21 23.0006 21H22.9601C20.2122 20.9898 17.9907 18.7527 18 16.0028H18V15.9994ZM23.0006 25C20.5448 25 18.1321 25.2216 16.301 25.971C15.3734 26.3506 14.5409 26.8871 13.9387 27.6501C13.3247 28.428 13 29.3791 13 30.4839C13 31.5872 13.3221 32.5388 13.9321 33.3192C14.5309 34.0852 15.36 34.6266 16.2866 35.0111C18.1156 35.77 20.5296 36 23.0006 36C25.4565 36 27.8689 35.778 29.6997 35.0284C30.6271 34.6487 31.4595 34.1121 32.0615 33.3492C32.6753 32.5715 33 31.6206 33 30.5161C33 29.4131 32.678 28.4617 32.0681 27.6815C31.4694 26.9156 30.6405 26.3741 29.7141 25.9895C27.8854 25.2303 25.4717 25 23.0006 25ZM15 30.4839C15 29.7948 15.1935 29.2884 15.5086 28.8892C15.8355 28.4751 16.3428 28.1149 17.0585 27.822C18.5141 27.2263 20.6016 27 23.0006 27C25.4105 27 27.4965 27.2344 28.9473 27.8366C29.6606 28.1327 30.1663 28.4961 30.4924 28.9132C30.8072 29.3159 31 29.8257 31 30.5161C31 31.2048 30.8066 31.711 30.4915 32.1103C30.1648 32.5243 29.6575 32.8846 28.9419 33.1775C27.4867 33.7733 25.3994 34 23.0006 34C20.5906 34 18.5042 33.766 17.0532 33.1638C16.3397 32.8678 15.8339 32.5045 15.5078 32.0874C15.1929 31.6846 15 31.1747 15 30.4839Z" fill="white"/>
</svg>
