<svg width="24" height="39" viewBox="0 0 24 39" fill="none" xmlns="http://www.w3.org/2000/svg">
<mask id="path-1-inside-1_2902_21556" fill="white">
<path d="M0.00195312 5C0.00195312 2.23858 2.24053 0 5.00195 0H19.002C21.7634 0 24.002 2.23858 24.002 5V19C24.002 21.7614 21.7634 24 19.002 24H5.00195C2.24053 24 0.00195312 21.7614 0.00195312 19V5Z"/>
</mask>
<path d="M0.00195312 5C0.00195312 2.23858 2.24053 0 5.00195 0H19.002C21.7634 0 24.002 2.23858 24.002 5V19C24.002 21.7614 21.7634 24 19.002 24H5.00195C2.24053 24 0.00195312 21.7614 0.00195312 19V5Z" fill="white"/>
<path d="M5.00195 2H19.002V-2H5.00195V2ZM22.002 5V19H26.002V5H22.002ZM19.002 22H5.00195V26H19.002V22ZM2.00195 19V5H-1.99805V19H2.00195ZM5.00195 22C3.3451 22 2.00195 20.6569 2.00195 19H-1.99805C-1.99805 22.866 1.13596 26 5.00195 26V22ZM22.002 19C22.002 20.6569 20.6588 22 19.002 22V26C22.8679 26 26.002 22.866 26.002 19H22.002ZM19.002 2C20.6588 2 22.002 3.34315 22.002 5H26.002C26.002 1.13401 22.8679 -2 19.002 -2V2ZM5.00195 -2C1.13596 -2 -1.99805 1.13401 -1.99805 5H2.00195C2.00195 3.34315 3.3451 2 5.00195 2V-2Z" fill="#DADADA" mask="url(#path-1-inside-1_2902_21556)"/>
<path fill-rule="evenodd" clip-rule="evenodd" d="M12.001 33.3137L16.2048 29L18.001 30.8432L12.001 37L6.00098 30.8432L7.79718 29L12.001 33.3137Z" fill="#203F9A"/>
</svg>
