<svg width="38" height="31" viewBox="0 0 38 31" fill="none" xmlns="http://www.w3.org/2000/svg">
<path d="M33 17V13H29V17H33Z" fill="#C0C0C0"/>
<path d="M23 14V16H20V14H23Z" fill="#C0C0C0"/>
<path d="M18 16V14H15V16H18Z" fill="#C0C0C0"/>
<path fill-rule="evenodd" clip-rule="evenodd" d="M16.4648 0H31.5352L38 9.69722V21H25V25H29V27H38V29H29V31H19V29H2V22.4649C0.804397 21.7733 0 20.4806 0 19V6C0 3.79086 1.79086 2 4 2H5C6.10457 2 7 2.89543 7 4V7C7 8.10457 6.10457 9 5 9H3V16H5C6.10457 16 7 16.8954 7 18V21C7 22.1046 6.10457 23 5 23H4V27H19V25H23V21H10V9.69722L16.4648 0ZM36 11H12V19H36V11ZM27 29V27H21V29H27Z" fill="#C0C0C0"/>
</svg>
