<svg width="40" height="31" viewBox="0 0 40 31" fill="none" xmlns="http://www.w3.org/2000/svg">
<path fill-rule="evenodd" clip-rule="evenodd" d="M27 16V26H35V16H27ZM32 18V21H33V24H29V21H30V18H32Z" fill="#6A96CB"/>
<path fill-rule="evenodd" clip-rule="evenodd" d="M16 26V16H24V26H16ZM22 21V24H18V21H19V18H21V21H22Z" fill="#6A96CB"/>
<path fill-rule="evenodd" clip-rule="evenodd" d="M5 26L5 16H13V26H5ZM10 18V21H11V24H7V21H8V18H10Z" fill="#6A96CB"/>
<path fill-rule="evenodd" clip-rule="evenodd" d="M6.40637 0H33.5936L40 11.745V31H0V11.745L6.40637 0ZM38 13H2V29H38V13Z" fill="#6A96CB"/>
</svg>
