<svg width="39" height="34" viewBox="0 0 39 34" fill="none" xmlns="http://www.w3.org/2000/svg">
<path d="M26.6797 0.587165C27.4736 -0.195722 28.7607 -0.195722 29.5546 0.587165L30.2733 1.29594C31.0672 2.07882 31.0672 3.34813 30.2733 4.13102L25.2422 9.09247L27.2201 11.043C24.3953 11.3843 21.6608 12.624 19.4924 14.7624C16.6025 17.6123 15.3311 21.454 15.6781 25.1765L15.1799 24.6852L9.78963 30.0009C9.19422 30.5881 8.22888 30.5881 7.63347 30.0009C7.03806 29.4138 7.03807 28.4618 7.63347 27.8746L13.0238 22.5589L7.99302 17.5978L2.60271 22.9135C2.0073 23.5007 1.04196 23.5007 0.446555 22.9135C-0.148852 22.3263 -0.148852 21.3743 0.446555 20.7872L5.83686 15.4715L3.68052 13.345C3.28358 12.9535 3.28358 12.3189 3.68052 11.9274L13.7426 2.00463C14.9334 0.830302 16.8641 0.830302 18.0549 2.00463L21.6486 5.54862L26.6797 0.587165Z" fill="#909090"/>
<path d="M24.883 25.0396L29.914 18.6607L28.4766 22.9133L33.1482 23.2677L27.7578 30.001L29.1953 25.0396H24.883Z" fill="#909090"/>
<path fill-rule="evenodd" clip-rule="evenodd" d="M21.6486 16.8887C25.618 12.9743 32.0536 12.9743 36.023 16.8887C39.9923 20.8032 39.9923 27.1497 36.023 31.0642C32.0536 34.9786 25.618 34.9786 21.6486 31.0642C17.6792 27.1497 17.6792 20.8032 21.6486 16.8887ZM23.8048 28.9379C21.0262 26.1978 21.0262 21.7552 23.8048 19.0151C26.5833 16.275 31.0883 16.275 33.8668 19.0151C36.6454 21.7552 36.6454 26.1978 33.8668 28.9379C31.0883 31.678 26.5833 31.678 23.8048 28.9379Z" fill="#909090"/>
</svg>
