<svg width="32" height="32" viewBox="0 0 32 32" fill="none" xmlns="http://www.w3.org/2000/svg">
<path fill-rule="evenodd" clip-rule="evenodd" d="M14.7593 6.81134e-06C14.7762 1.02684e-05 14.7931 1.37255e-05 14.81 1.37255e-05H17.19C17.207 1.37255e-05 17.2239 1.02684e-05 17.2408 6.81134e-06C17.6267 -7.11515e-05 18.0056 -0.000147685 18.3213 0.0405353C18.6791 0.0866487 19.0846 0.198148 19.437 0.517108C19.7895 0.836066 19.9408 1.22845 20.0223 1.57988C20.0942 1.88993 20.1318 2.267 20.1701 2.65104L20.1801 2.75111L20.2489 3.43923C20.334 4.2898 20.389 4.81303 20.4765 5.16111C20.4782 5.16774 20.4799 5.17419 20.4815 5.18047C20.4871 5.17719 20.4928 5.1738 20.4987 5.17029C20.8067 4.98608 21.2156 4.65499 21.8772 4.11369L22.4902 3.61214C22.7888 3.3677 23.0821 3.12769 23.3521 2.95929C23.6582 2.76841 24.0427 2.59793 24.5174 2.62161C24.9922 2.64529 25.3578 2.85318 25.6434 3.07357C25.8953 3.26801 26.1632 3.53601 26.4361 3.80896L28.1908 5.5637C28.4637 5.83653 28.7317 6.1044 28.9262 6.35637C29.1466 6.64197 29.3544 7.00754 29.3781 7.4823C29.4018 7.95706 29.2313 8.34149 29.0404 8.64761C28.872 8.91769 28.632 9.21091 28.3876 9.50956L27.8858 10.1228C27.3445 10.7844 27.0135 11.1932 26.8292 11.5013C26.8257 11.5072 26.8223 11.5129 26.8191 11.5185C26.8253 11.5201 26.8318 11.5218 26.8384 11.5234C27.1865 11.611 27.7097 11.666 28.5603 11.7511L29.349 11.8299C29.733 11.8682 30.1101 11.9059 30.4201 11.9778C30.7716 12.0592 31.164 12.2105 31.4829 12.563C31.8019 12.9154 31.9134 13.3209 31.9595 13.6787C32.0002 13.9944 32.0001 14.3733 32 14.7592V17.2408C32.0001 17.6267 32.0002 18.0056 31.9595 18.3213C31.9134 18.6791 31.8019 19.0846 31.4829 19.437C31.164 19.7895 30.7716 19.9408 30.4202 20.0223C30.1101 20.0942 29.733 20.1318 29.349 20.1701L29.2489 20.1801L28.5611 20.2489C27.7105 20.334 27.1873 20.3889 26.8392 20.4765C26.8326 20.4782 26.8261 20.4798 26.8199 20.4815C26.8231 20.4871 26.8265 20.4928 26.83 20.4987C27.0142 20.8067 27.3453 21.2156 27.8866 21.8772L28.3879 22.4898C28.6323 22.7885 28.8724 23.0817 29.0408 23.3517C29.2316 23.6579 29.4021 24.0423 29.3784 24.5171C29.3547 24.9918 29.1469 25.3574 28.9265 25.643C28.732 25.895 28.464 26.1629 28.1911 26.4357L26.4364 28.1904C26.1635 28.4634 25.8956 28.7314 25.6437 28.9258C25.3581 29.1462 24.9925 29.3541 24.5177 29.3777C24.043 29.4014 23.6585 29.2309 23.3524 29.0401C23.0824 28.8717 22.7891 28.6317 22.4905 28.3872L21.8773 27.8855C21.2157 27.3442 20.8068 27.0131 20.4988 26.8289C20.4929 26.8254 20.4872 26.822 20.4816 26.8187C20.48 26.825 20.4783 26.8314 20.4766 26.8381C20.3891 27.1861 20.3341 27.7094 20.249 28.5599L20.1801 29.2489L20.1701 29.349C20.1318 29.733 20.0942 30.1101 20.0223 30.4202C19.9408 30.7716 19.7895 31.164 19.437 31.4829C19.0846 31.8019 18.6791 31.9134 18.3213 31.9595C18.0056 32.0002 17.6267 32.0001 17.2408 32H14.7592C14.3733 32.0001 13.9944 32.0002 13.6787 31.9595C13.3209 31.9134 12.9154 31.8019 12.563 31.4829C12.2105 31.164 12.0592 30.7716 11.9778 30.4201C11.9059 30.1101 11.8682 29.733 11.8299 29.349L11.7511 28.5603C11.666 27.7098 11.611 27.1865 11.5234 26.8385C11.5218 26.8318 11.5201 26.8254 11.5185 26.8191C11.5129 26.8224 11.5072 26.8258 11.5013 26.8293C11.1932 27.0135 10.7844 27.3446 10.1228 27.8859L9.50926 28.3879C9.2106 28.6323 8.91738 28.8723 8.6473 29.0407C8.34118 29.2316 7.95674 29.4021 7.48198 29.3784C7.00723 29.3547 6.64166 29.1469 6.35605 28.9265C6.10409 28.732 5.83621 28.4641 5.56337 28.1911L3.80865 26.4364C3.5357 26.1635 3.2677 25.8957 3.07326 25.6437C2.85286 25.3581 2.64498 24.9925 2.6213 24.5177C2.59762 24.043 2.7681 23.6585 2.95898 23.3524C3.12738 23.0824 3.3674 22.7891 3.61185 22.4905L4.11364 21.8772C4.65494 21.2156 4.98603 20.8067 5.17024 20.4987C5.17375 20.4928 5.17714 20.4871 5.18042 20.4815C5.17414 20.4799 5.16769 20.4782 5.16106 20.4765C4.81298 20.389 4.28975 20.334 3.43918 20.2489L2.75113 20.1801L2.65104 20.1701C2.267 20.1318 1.88993 20.0942 1.57988 20.0223C1.22845 19.9408 0.836067 19.7895 0.517108 19.437C0.198148 19.0846 0.0866487 18.6791 0.0405353 18.3213C-0.000147685 18.0056 -7.11515e-05 17.6267 6.81134e-06 17.2408C1.02684e-05 17.2239 1.37255e-05 17.207 1.37255e-05 17.19V14.81C1.37255e-05 14.7931 1.02684e-05 14.7762 6.81134e-06 14.7593C-7.11515e-05 14.3733 -0.000147685 13.9944 0.0405353 13.6787C0.0866486 13.3209 0.198148 12.9154 0.517108 12.563C0.836069 12.2105 1.22845 12.0592 1.57989 11.9778C1.88993 11.9059 2.26699 11.8682 2.65102 11.8299C2.66784 11.8282 2.68467 11.8266 2.7015 11.8249L3.43997 11.751C4.29055 11.666 4.81377 11.611 5.16185 11.5234C5.16848 11.5217 5.17494 11.5201 5.18121 11.5185C5.17793 11.5129 5.17454 11.5071 5.17103 11.5013C4.98682 11.1932 4.65573 10.7843 4.11443 10.1228L3.64428 9.54813C3.63357 9.53504 3.62286 9.52196 3.61216 9.50889C3.36771 9.21023 3.12769 8.917 2.95929 8.64693C2.76841 8.34081 2.59793 7.95637 2.62161 7.48161C2.64529 7.00685 2.85317 6.64128 3.07356 6.35568C3.268 6.1037 3.536 5.83581 3.80896 5.56296C3.82091 5.55102 3.83287 5.53906 3.84483 5.5271L5.52778 3.84415C5.53975 3.83219 5.5517 3.82022 5.56365 3.80827C5.8365 3.53532 6.10438 3.26732 6.35636 3.07288C6.64197 2.85249 7.00753 2.6446 7.48229 2.62092C7.95705 2.59725 8.34149 2.76772 8.64761 2.9586C8.91768 3.12701 9.21091 3.36702 9.50957 3.61148C9.52264 3.62218 9.53572 3.63289 9.54882 3.6436L10.1229 4.11328C10.7845 4.65458 11.1933 4.98567 11.5014 5.16988C11.5072 5.17339 11.513 5.17678 11.5186 5.18007C11.5202 5.17379 11.5219 5.16734 11.5235 5.16071C11.6111 4.81262 11.6661 4.2894 11.7511 3.43883L11.8249 2.7015C11.8266 2.68466 11.8282 2.66783 11.8299 2.65102C11.8682 2.26699 11.9059 1.88993 11.9778 1.57989C12.0592 1.22845 12.2105 0.83607 12.563 0.517109C12.9154 0.198149 13.3209 0.0866486 13.6787 0.0405353C13.9944 -0.000147685 14.3733 -7.11515e-05 14.7593 6.81134e-06ZM13.9276 2.02502C13.9271 2.02718 13.9266 2.02939 13.9261 2.03164C13.8869 2.20062 13.8604 2.44594 13.815 2.90051L13.7412 3.63783C13.7388 3.66249 13.7363 3.68706 13.7339 3.71155C13.6586 4.46483 13.5912 5.13928 13.4631 5.64866C13.3304 6.176 13.0577 6.84049 12.331 7.1415C11.6043 7.44251 10.9416 7.16547 10.4749 6.88639C10.0241 6.61683 9.49961 6.18757 8.91377 5.70815C8.89471 5.69255 8.87558 5.6769 8.85639 5.66119L8.28234 5.19151C7.92877 4.90223 7.73657 4.74749 7.58938 4.65571C7.58742 4.65448 7.58549 4.65329 7.5836 4.65212C7.58184 4.65347 7.58003 4.65485 7.5782 4.65626C7.44087 4.76224 7.26503 4.93533 6.942 5.25836L5.25905 6.94131C4.93602 7.26435 4.76292 7.44019 4.65695 7.57752C4.65553 7.57935 4.65415 7.58115 4.6528 7.58292C4.65397 7.58481 4.65516 7.58673 4.65639 7.5887C4.74817 7.73589 4.90291 7.92809 5.1922 8.28166L5.66234 8.85628C5.67803 8.87546 5.69368 8.89458 5.70927 8.91363C6.18871 9.49948 6.61797 10.024 6.88754 10.4748C7.16662 10.9415 7.44365 11.6042 7.14264 12.3309C6.84163 13.0576 6.17715 13.3303 5.6498 13.463C5.14043 13.5911 4.46597 13.6585 3.71269 13.7337C3.6882 13.7362 3.66363 13.7386 3.63898 13.7411L2.90051 13.8149C2.44594 13.8604 2.20062 13.8869 2.03164 13.9261C2.02939 13.9266 2.02718 13.9271 2.02502 13.9276C2.02472 13.9298 2.02443 13.9321 2.02413 13.9344C2.00196 14.1064 2.00001 14.3532 2.00001 14.81V17.19C2.00001 17.6469 2.00196 17.8936 2.02413 18.0657C2.02443 18.0679 2.02472 18.0702 2.02502 18.0724C2.02718 18.0729 2.02938 18.0734 2.03164 18.074C2.19802 18.1125 2.43841 18.1388 2.87969 18.183C2.88658 18.1837 2.89351 18.1844 2.90049 18.1851L3.71195 18.2662C4.46521 18.3415 5.13965 18.4088 5.64901 18.537C6.17635 18.6696 6.84084 18.9423 7.14185 19.669C7.44286 20.3957 7.16583 21.0584 6.88675 21.5251C6.61718 21.9759 6.18792 22.5005 5.70849 23.0863L5.19189 23.7177C4.90261 24.0713 4.74786 24.2635 4.65608 24.4107C4.65486 24.4126 4.65366 24.4145 4.6525 24.4164C4.65385 24.4182 4.65523 24.42 4.65664 24.4218C4.76261 24.5592 4.93571 24.735 5.25874 25.058L6.94169 26.741C7.26472 27.064 7.44057 27.2371 7.5779 27.3431C7.57973 27.3445 7.58153 27.3459 7.58329 27.3472C7.58518 27.3461 7.58711 27.3449 7.58908 27.3436C7.73627 27.2519 7.92846 27.0971 8.28203 26.8078L8.91369 26.291C9.49952 25.8116 10.0241 25.3823 10.4748 25.1128C10.9415 24.8337 11.6042 24.5567 12.3309 24.8577C13.0576 25.1587 13.3303 25.8232 13.463 26.3505C13.5911 26.8599 13.6585 27.5343 13.7338 28.2876L13.815 29.0995C13.8604 29.5541 13.8869 29.7994 13.9261 29.9684C13.9266 29.9706 13.9271 29.9729 13.9276 29.975C13.9298 29.9753 13.9321 29.9756 13.9344 29.9759C14.1064 29.9981 14.3532 30 14.81 30H17.19C17.6469 30 17.8936 29.9981 18.0657 29.9759C18.0679 29.9756 18.0702 29.9753 18.0724 29.975C18.0729 29.9729 18.0734 29.9706 18.074 29.9684C18.1126 29.8019 18.1388 29.5614 18.1831 29.1196C18.1837 29.113 18.1844 29.1063 18.1851 29.0995L18.2663 28.2872C18.3415 27.5339 18.4089 26.8595 18.5371 26.3501C18.6697 25.8228 18.9424 25.1583 19.6691 24.8573C20.3958 24.5563 21.0585 24.8333 21.5252 25.1124C21.976 25.3819 22.5006 25.8112 23.0864 26.2906L23.7177 26.8072C24.0713 27.0964 24.2635 27.2512 24.4107 27.343C24.4126 27.3442 24.4146 27.3454 24.4164 27.3465C24.4182 27.3452 24.42 27.3438 24.4218 27.3424C24.5592 27.2364 24.735 27.0633 25.058 26.7403L26.741 25.0574C27.064 24.7343 27.2371 24.5585 27.3431 24.4212C27.3445 24.4193 27.3459 24.4175 27.3472 24.4158C27.3461 24.4139 27.3449 24.4119 27.3436 24.41C27.2519 24.2628 27.0971 24.0706 26.8078 23.717L26.2918 23.0863C25.8123 22.5004 25.3831 21.9759 25.1135 21.5251C24.8344 21.0584 24.5574 20.3957 24.8584 19.669C25.1594 18.9423 25.8239 18.6696 26.3513 18.537C26.8606 18.4088 27.5351 18.3414 28.2883 18.2662L29.0995 18.1851C29.5541 18.1396 29.7994 18.1131 29.9684 18.074C29.9706 18.0734 29.9729 18.0729 29.975 18.0724C29.9753 18.0702 29.9756 18.0679 29.9759 18.0657C29.9981 17.8936 30 17.6469 30 17.19V14.81C30 14.3532 29.9981 14.1064 29.9759 13.9344C29.9756 13.9321 29.9753 13.9298 29.975 13.9276C29.9729 13.9271 29.9706 13.9266 29.9684 13.9261C29.7994 13.8869 29.5541 13.8604 29.0995 13.815L28.2875 13.7338C27.5343 13.6585 26.8598 13.5911 26.3505 13.463C25.8231 13.3303 25.1586 13.0576 24.8576 12.3309C24.5566 11.6042 24.8337 10.9415 25.1127 10.4748C25.3823 10.0241 25.8116 9.49951 26.291 8.91367L26.8075 8.28235C27.0968 7.92878 27.2516 7.73658 27.3433 7.58939C27.3446 7.58742 27.3458 7.58549 27.3469 7.5836C27.3456 7.58184 27.3442 7.58004 27.3428 7.57821C27.2374 7.44166 27.0657 7.26703 26.7461 6.94747C26.7443 6.94566 26.7425 6.94384 26.7407 6.94201L25.0577 5.25905C24.7347 4.93602 24.5589 4.76292 24.4215 4.65695C24.4197 4.65554 24.4179 4.65416 24.4161 4.65281C24.4142 4.65397 24.4123 4.65517 24.4103 4.65639C24.2631 4.74818 24.071 4.90292 23.7174 5.1922L23.0863 5.70854C22.5005 6.18797 21.9759 6.61724 21.5251 6.8868C21.0584 7.16588 20.3958 7.44291 19.669 7.1419C18.9423 6.84089 18.6696 6.17641 18.537 5.64906C18.4088 5.1397 18.3415 4.46526 18.2662 3.712L18.1851 2.90049C18.1851 2.90044 18.1851 2.90054 18.1851 2.90049C18.1396 2.44603 18.1131 2.2006 18.074 2.03164C18.0734 2.02938 18.0729 2.02718 18.0724 2.02502C18.0702 2.02472 18.0679 2.02443 18.0657 2.02413C17.8936 2.00196 17.6469 2.00001 17.19 2.00001H14.81C14.3532 2.00001 14.1064 2.00196 13.9344 2.02413C13.9321 2.02443 13.9298 2.02472 13.9276 2.02502ZM16 11C13.2386 11 11 13.2386 11 16C11 18.7614 13.2386 21 16 21C18.7614 21 21 18.7614 21 16C21 13.2386 18.7614 11 16 11ZM9.00002 16C9.00002 12.134 12.134 9.00001 16 9.00001C19.866 9.00001 23 12.134 23 16C23 19.866 19.866 23 16 23C12.134 23 9.00002 19.866 9.00002 16Z" fill="#C0C0C0"/>
</svg>
