<svg width="22" height="22" viewBox="0 0 22 22" fill="none" xmlns="http://www.w3.org/2000/svg">
<path fill-rule="evenodd" clip-rule="evenodd" d="M3.16537 1.00001C3.18429 1.00001 3.20324 1.00001 3.22223 1.00001H7.27327C7.28742 1.00001 7.30156 1.00001 7.31569 1.00001C7.64321 0.999951 7.96523 0.999896 8.23882 1.03032C8.54945 1.06486 8.88918 1.14606 9.21386 1.36862C9.53762 1.59056 9.73629 1.87763 9.88162 2.15358C10.0103 2.39796 10.1293 2.69923 10.2511 3.00781C10.2563 3.02085 10.2614 3.0339 10.2666 3.04696L10.711 4.17195C10.7196 4.19363 10.7282 4.21524 10.7367 4.23679C10.9908 4.87987 11.2208 5.4618 11.3345 5.94494C11.3841 6.15591 11.4212 6.38633 11.4214 6.62501L16.6234 6.62501C17.613 6.62496 18.4559 6.62492 19.1288 6.71653C19.8471 6.81431 20.5189 7.03286 21.0606 7.58132C21.6006 8.12806 21.8142 8.80317 21.91 9.52452C22.0001 10.2034 22.0001 11.0546 22 12.0583V15.5667C22.0001 16.5704 22.0001 17.4217 21.91 18.1005C21.8142 18.8219 21.6006 19.497 21.0606 20.0437C20.5189 20.5922 19.8471 20.8107 19.1288 20.9085C18.4559 21.0001 17.613 21.0001 16.6234 21H5.3766C4.38701 21.0001 3.54412 21.0001 2.87119 20.9085C2.15288 20.8107 1.48109 20.5922 0.9394 20.0437C0.399411 19.497 0.185857 18.8219 0.0900719 18.1005C-7.11456e-05 17.4216 -3.41917e-05 16.5704 9.55807e-06 15.5667L1.14654e-05 4.25001C1.14654e-05 4.23124 8.6044e-06 4.21251 5.74338e-06 4.19382C-6.86432e-05 3.71216 -0.000138976 3.25696 0.0493924 2.88395C0.104498 2.46896 0.236692 2.0088 0.613963 1.62682C0.992936 1.24311 1.45242 1.10693 1.86816 1.05034C2.23906 0.99985 2.6909 0.999926 3.16537 1.00001ZM7.92746 8.62501H16.5556C17.6317 8.62501 18.337 8.62719 18.8591 8.69825C19.351 8.76522 19.5285 8.87618 19.6377 8.98672C19.7485 9.09899 19.8604 9.28372 19.9274 9.78778C19.9979 10.3194 20 11.0364 20 12.125V15.5C20 16.5886 19.9979 17.3057 19.9274 17.8372C19.8604 18.3413 19.7485 18.526 19.6377 18.6383C19.5285 18.7488 19.351 18.8598 18.8591 18.9268C18.337 18.9978 17.6317 19 16.5556 19H5.44446C4.36828 19 3.66298 18.9978 3.14096 18.9268C2.64899 18.8598 2.47155 18.7488 2.36237 18.6383C2.25149 18.526 2.1396 18.3413 2.07267 17.8372C2.00208 17.3057 2.00001 16.5886 2.00001 15.5V4.25001C2.00001 3.69175 2.00208 3.37243 2.03199 3.14721C2.03779 3.1035 2.04381 3.07093 2.04909 3.04728C2.07072 3.04256 2.09978 3.03726 2.13793 3.03206C2.35738 3.00219 2.66984 3.00001 3.22223 3.00001H7.27327C7.65988 3.00001 7.86829 3.00144 8.01779 3.01807C8.04397 3.02098 8.06391 3.02396 8.07866 3.02659C8.08718 3.04032 8.09831 3.05949 8.11204 3.08555C8.18375 3.22171 8.26316 3.41897 8.4065 3.78181L8.85095 4.90681C9.13903 5.63603 9.31155 6.0797 9.3876 6.40296C9.4023 6.46542 9.41087 6.5134 9.41575 6.54941C9.38321 6.55723 9.34017 6.56585 9.28413 6.57423C8.96252 6.62233 8.49454 6.62501 7.71772 6.62501H4.8889C4.33662 6.62501 3.8889 7.07273 3.8889 7.62501C3.8889 8.1773 4.33662 8.62501 4.8889 8.62501H7.71772C7.74135 8.62501 7.76492 8.62502 7.78842 8.62502C7.83506 8.62502 7.88141 8.62503 7.92746 8.62501ZM9.50456 6.51994C9.50456 6.51994 9.5023 6.52178 9.49582 6.52465C9.50099 6.52124 9.50456 6.51994 9.50456 6.51994Z" fill="white"/>
</svg>
